<svg width="25" height="24" viewBox="0 0 25 24" fill="none" xmlns="http://www.w3.org/2000/svg">
<g clip-path="url(#clip0_1225_3395)">
<path d="M12.6667 0.375C6.24481 0.375 1.04169 5.57812 1.04169 12C1.04169 18.4219 6.24481 23.625 12.6667 23.625C19.0886 23.625 24.2917 18.4219 24.2917 12C24.2917 5.57812 19.0886 0.375 12.6667 0.375ZM17.0022 15.0469L16.0647 16.2188C16.0031 16.2957 15.9271 16.3597 15.8408 16.4072C15.7545 16.4548 15.6597 16.4848 15.5618 16.4957C15.4639 16.5066 15.3648 16.4981 15.2702 16.4707C15.1756 16.4432 15.0874 16.3975 15.0104 16.3359L11.8698 14.0053C11.6504 13.8296 11.4732 13.6068 11.3515 13.3534C11.2298 13.1 11.1667 12.8225 11.1667 12.5414V5.25C11.1667 5.05109 11.2457 4.86032 11.3864 4.71967C11.527 4.57902 11.7178 4.5 11.9167 4.5H13.4167C13.6156 4.5 13.8064 4.57902 13.947 4.71967C14.0877 4.86032 14.1667 5.05109 14.1667 5.25V12L16.8854 13.9922C16.9624 14.0537 17.0265 14.1299 17.074 14.2162C17.1215 14.3025 17.1515 14.3974 17.1624 14.4953C17.1732 14.5933 17.1646 14.6924 17.1371 14.7871C17.1097 14.8817 17.0638 14.97 17.0022 15.0469Z" fill="#27272A"/>
</g>
<defs>
<clipPath id="clip0_1225_3395">
<rect width="24" height="24" fill="white" transform="translate(0.666687)"/>
</clipPath>
</defs>
</svg>
