<svg width="24" height="24" viewBox="0 0 24 24" fill="none" xmlns="http://www.w3.org/2000/svg">
<path d="M11.6667 0.375C5.24481 0.375 0.041687 5.57812 0.041687 12C0.041687 18.4219 5.24481 23.625 11.6667 23.625C18.0886 23.625 23.2917 18.4219 23.2917 12C23.2917 5.57812 18.0886 0.375 11.6667 0.375ZM16.0022 15.0469L15.0647 16.2188C15.0031 16.2957 14.9271 16.3597 14.8408 16.4072C14.7545 16.4548 14.6597 16.4848 14.5618 16.4957C14.4639 16.5066 14.3648 16.4981 14.2702 16.4707C14.1756 16.4432 14.0874 16.3975 14.0104 16.3359L10.8698 14.0053C10.6504 13.8296 10.4732 13.6068 10.3515 13.3534C10.2298 13.1 10.1667 12.8225 10.1667 12.5414V5.25C10.1667 5.05109 10.2457 4.86032 10.3864 4.71967C10.527 4.57902 10.7178 4.5 10.9167 4.5H12.4167C12.6156 4.5 12.8064 4.57902 12.947 4.71967C13.0877 4.86032 13.1667 5.05109 13.1667 5.25V12L15.8854 13.9922C15.9624 14.0537 16.0265 14.1299 16.074 14.2162C16.1215 14.3025 16.1515 14.3974 16.1624 14.4953C16.1732 14.5933 16.1646 14.6924 16.1371 14.7871C16.1097 14.8817 16.0638 14.97 16.0022 15.0469Z" fill="#27272A"/>
</svg>
