<svg width="18" height="19" fill="none" xmlns="http://www.w3.org/2000/svg"><g clip-path="url(#a)"><path d="M5.401 13.4h5.4a2.7 2.7 0 0 0 2.7-2.7h.9C16.385 10.7 18 9.084 18 7.1c0-1.986-1.614-3.6-3.6-3.6H3.376c-.374 0-.675.3-.675.675v6.524a2.7 2.7 0 0 0 2.7 2.7Zm9-8.1c.992 0 1.8.807 1.8 1.8 0 .992-.808 1.8-1.8 1.8h-.9V5.3h.9Zm1.34 10.799H1.36c-1.339 0-1.716-1.8-1.013-1.8h16.404c.703 0 .332 1.8-1.01 1.8Z" fill="#000" fill-opacity=".53"/></g><defs><clipPath id="a"><path fill="#fff" transform="translate(0 .5)" d="M0 0h18v18H0z"/></clipPath></defs></svg>