<svg width="24" height="25" fill="none" xmlns="http://www.w3.org/2000/svg"><g clip-path="url(#a)"><path d="M12 1.75c-6.628 0-12 4.364-12 9.75 0 2.231.933 4.275 2.48 5.92C1.78 19.267.328 20.833.305 20.852a1.125 1.125 0 0 0 .82 1.898c2.883 0 5.156-1.205 6.52-2.17 1.355.426 2.818.67 4.355.67 6.628 0 12-4.364 12-9.75s-5.372-9.75-12-9.75ZM12 19a12.18 12.18 0 0 1-3.675-.567l-1.064-.338-.914.647c-.67.474-1.59 1.003-2.695 1.36.342-.568.675-1.205.932-1.885l.497-1.317-.965-1.022c-.849-.905-1.866-2.4-1.866-4.378C2.25 7.366 6.623 4 12 4s9.75 3.366 9.75 7.5S17.377 19 12 19Z" fill="#000" fill-opacity=".53"/></g><defs><clipPath id="a"><path fill="#fff" transform="translate(0 .25)" d="M0 0h24v24H0z"/></clipPath></defs></svg>