<svg width="24" height="24" fill="none" xmlns="http://www.w3.org/2000/svg"><path d="M4 10.5h.633A7.491 7.491 0 0 0 11.5 15a7.491 7.491 0 0 0 6.867-4.5H19c.413 0 .75-.338.75-.75v-4.5A.752.752 0 0 0 19 4.5h-.633A7.491 7.491 0 0 0 11.5 0a7.491 7.491 0 0 0-6.867 4.5H4a.752.752 0 0 0-.75.75v4.5c0 .412.337.75.75.75Zm1.875-4.125c0-1.036 1.008-1.875 2.25-1.875h6.75c1.242 0 2.25.84 2.25 1.875V7.5c0 2.484-2.016 4.5-4.5 4.5h-2.25a4.501 4.501 0 0 1-4.5-4.5V6.375ZM9.25 9.75l.563-1.688L11.5 7.5l-1.688-.563L9.25 5.25l-.563 1.688L7 7.5l1.688.563.562 1.687Zm7.106 5.316A8.922 8.922 0 0 1 11.5 16.5c-1.79 0-3.455-.53-4.856-1.434C3.48 15.398 1 18.046 1 21.3v.45A2.25 2.25 0 0 0 3.25 24H7v-3c0-.83.67-1.5 1.5-1.5h6c.83 0 1.5.67 1.5 1.5v3h3.75A2.25 2.25 0 0 0 22 21.75v-.45c0-3.253-2.48-5.902-5.644-6.234ZM13.75 21a.752.752 0 0 0-.75.75c0 .413.338.75.75.75s.75-.337.75-.75a.752.752 0 0 0-.75-.75Zm-4.5 0a.752.752 0 0 0-.75.75V24H10v-2.25a.752.752 0 0 0-.75-.75Z" fill="#585252"/></svg>