<svg width="24" height="22" viewBox="0 0 24 22" fill="none" xmlns="http://www.w3.org/2000/svg">
<path d="M23 2.66667H18.6667V1C18.6667 0.445833 18.2208 0 17.6667 0H6.33333C5.77917 0 5.33333 0.445833 5.33333 1V2.66667H1C0.445833 2.66667 0 3.1125 0 3.66667V6C0 7.4875 0.9375 9.01667 2.57917 10.1958C3.89167 11.1417 5.4875 11.7417 7.1625 11.9333C8.47083 14.1042 10 15 10 15V18H8C6.52917 18 5.33333 18.8625 5.33333 20.3333V20.8333C5.33333 21.1083 5.55833 21.3333 5.83333 21.3333H18.1667C18.4417 21.3333 18.6667 21.1083 18.6667 20.8333V20.3333C18.6667 18.8625 17.4708 18 16 18H14V15C14 15 15.5292 14.1042 16.8375 11.9333C18.5167 11.7417 20.1125 11.1417 21.4208 10.1958C23.0583 9.01667 24 7.4875 24 6V3.66667C24 3.1125 23.5542 2.66667 23 2.66667ZM4.1375 8.03333C3.12083 7.3 2.66667 6.48333 2.66667 6V5.33333H5.34167C5.38333 6.69167 5.58333 7.88333 5.875 8.925C5.24583 8.70833 4.65833 8.40833 4.1375 8.03333ZM21.3333 6C21.3333 6.67083 20.5958 7.50417 19.8625 8.03333C19.3417 8.40833 18.75 8.70833 18.1208 8.925C18.4125 7.88333 18.6125 6.69167 18.6542 5.33333H21.3333V6Z" fill="#585252"/>
</svg>
