<svg width="25" height="25" viewBox="0 0 25 25" fill="none" xmlns="http://www.w3.org/2000/svg">
<g clip-path="url(#clip0_1225_3189)">
<path d="M24.4669 12.4788C24.4669 6.05695 19.1107 0.853821 12.5 0.853821C5.88924 0.853821 0.533081 6.05695 0.533081 12.4788C0.533081 18.281 4.90921 23.0904 10.6302 23.9632V15.8393H7.59018V12.4788H10.6302V9.91757C10.6302 7.00429 12.4156 5.39507 15.1501 5.39507C16.4597 5.39507 17.8291 5.62195 17.8291 5.62195V8.48132H16.3198C14.8335 8.48132 14.3698 9.37757 14.3698 10.2968V12.4788H17.6887L17.1579 15.8393H14.3698V23.9632C20.0908 23.0904 24.4669 18.281 24.4669 12.4788Z" fill="black" fill-opacity="0.53"/>
</g>
<defs>
<clipPath id="clip0_1225_3189">
<rect width="24.7059" height="24" fill="white" transform="translate(0.147034 0.478821)"/>
</clipPath>
</defs>
</svg>
