<svg width="25" height="24" viewBox="0 0 25 24" fill="none" xmlns="http://www.w3.org/2000/svg">
<g clip-path="url(#clip0_1225_3399)">
<path d="M13.4584 1.11847C13.4584 0.00284234 12.0217 -0.417627 11.3888 0.507217C5.58337 8.993 13.8334 9.37503 13.8334 13.5C13.8334 15.1702 12.4688 16.5216 10.7935 16.4996C9.14494 16.4785 7.83337 15.1041 7.83337 13.4555V9.44722C7.83337 8.43003 6.59259 7.93644 5.89134 8.67378C4.6365 9.99191 3.33337 12.2499 3.33337 15C3.33337 19.9627 7.37072 24 12.3334 24C17.296 24 21.3334 19.9627 21.3334 15C21.3334 7.01769 13.4584 5.95316 13.4584 1.11847Z" fill="#585252"/>
</g>
<defs>
<clipPath id="clip0_1225_3399">
<rect width="24" height="24" fill="white" transform="translate(0.333374)"/>
</clipPath>
</defs>
</svg>
