<svg width="108" height="23" fill="none" xmlns="http://www.w3.org/2000/svg"><path d="M26.024 6.88V18H24.2V6.88h1.824Zm6.843 2.16c.693 0 1.312.144 1.856.432.554.288.986.715 1.296 1.28.31.565.464 1.248.464 2.048V18h-1.808v-4.928c0-.79-.198-1.392-.592-1.808-.395-.427-.934-.64-1.616-.64-.683 0-1.227.213-1.632.64-.395.416-.592 1.019-.592 1.808V18h-1.824V9.184h1.824v1.008a3.032 3.032 0 0 1 1.136-.848c.47-.203.965-.304 1.488-.304Zm9.142 9.104c-.693 0-1.317-.123-1.872-.368-.544-.256-.976-.597-1.296-1.024a2.59 2.59 0 0 1-.512-1.456h1.888c.032.373.208.688.528.944.331.245.742.368 1.232.368.512 0 .907-.096 1.184-.288.288-.203.432-.459.432-.768 0-.33-.16-.576-.48-.736-.309-.16-.805-.336-1.488-.528a14.42 14.42 0 0 1-1.616-.528 2.9 2.9 0 0 1-1.088-.784c-.298-.352-.448-.816-.448-1.392 0-.47.139-.896.416-1.28.278-.395.672-.704 1.184-.928.523-.224 1.12-.336 1.792-.336 1.003 0 1.808.256 2.416.768.619.501.95 1.19.992 2.064H43.45a1.3 1.3 0 0 0-.48-.944c-.288-.235-.677-.352-1.168-.352-.48 0-.848.09-1.104.272a.842.842 0 0 0-.384.72.78.78 0 0 0 .256.592c.171.16.379.288.624.384.246.085.608.197 1.088.336.64.17 1.163.347 1.568.528.416.17.774.427 1.072.768.299.341.454.795.464 1.36 0 .501-.138.95-.416 1.344-.277.395-.672.704-1.184.928-.501.224-1.093.336-1.776.336Zm7.475-7.472v4.88c0 .33.075.57.224.72.16.139.427.208.8.208h1.12V18h-1.44c-.821 0-1.45-.192-1.888-.576-.437-.384-.656-1.008-.656-1.872v-4.88h-1.04V9.184h1.04V6.992h1.84v2.192h2.144v1.488h-2.144Zm3.217 2.88c0-.885.182-1.67.544-2.352a4.062 4.062 0 0 1 3.616-2.16c.694 0 1.296.139 1.808.416.523.267.939.603 1.248 1.008v-1.28h1.84V18h-1.84v-1.312c-.309.416-.73.763-1.264 1.04-.533.277-1.141.416-1.824.416-.757 0-1.45-.192-2.08-.576a4.275 4.275 0 0 1-1.504-1.632c-.362-.704-.544-1.499-.544-2.384Zm7.216.032c0-.608-.128-1.136-.384-1.584a2.585 2.585 0 0 0-.976-1.024 2.574 2.574 0 0 0-1.312-.352c-.469 0-.906.117-1.312.352-.405.224-.736.56-.992 1.008-.245.437-.368.96-.368 1.568 0 .608.123 1.141.368 1.6.256.459.587.81.992 1.056.416.235.854.352 1.312.352.47 0 .907-.117 1.312-.352.406-.235.731-.576.976-1.024.256-.459.384-.992.384-1.6Zm7.788-4.544c.683 0 1.285.139 1.808.416.533.267.95.603 1.248 1.008v-1.28h1.84v8.96c0 .81-.17 1.53-.512 2.16a3.673 3.673 0 0 1-1.488 1.504c-.64.363-1.408.544-2.304.544-1.194 0-2.186-.283-2.976-.848-.79-.555-1.237-1.312-1.344-2.272h1.808c.139.459.432.827.88 1.104.459.288 1.003.432 1.632.432.736 0 1.328-.224 1.776-.672.459-.448.688-1.099.688-1.952v-1.472c-.31.416-.73.768-1.264 1.056-.522.277-1.12.416-1.792.416a4.028 4.028 0 0 1-2.112-.576 4.276 4.276 0 0 1-1.504-1.632c-.362-.704-.544-1.499-.544-2.384 0-.885.181-1.67.544-2.352a4.064 4.064 0 0 1 3.616-2.16Zm3.056 4.544c0-.608-.128-1.136-.384-1.584a2.584 2.584 0 0 0-.976-1.024 2.574 2.574 0 0 0-1.312-.352c-.47 0-.906.117-1.312.352-.405.224-.736.56-.992 1.008-.245.437-.368.96-.368 1.568 0 .608.123 1.141.368 1.6.256.459.587.81.992 1.056.416.235.853.352 1.312.352.47 0 .907-.117 1.312-.352.406-.235.73-.576.976-1.024.256-.459.384-.992.384-1.6Zm6.06-3.12a2.82 2.82 0 0 1 1.056-1.04c.448-.256.976-.384 1.584-.384v1.888h-.464c-.715 0-1.259.181-1.632.544-.363.363-.544.992-.544 1.888V18h-1.824V9.184h1.824v1.28Zm3.709 3.088c0-.885.18-1.67.543-2.352a4.063 4.063 0 0 1 3.617-2.16c.693 0 1.296.139 1.808.416.522.267.938.603 1.248 1.008v-1.28h1.84V18h-1.84v-1.312c-.31.416-.731.763-1.264 1.04-.534.277-1.142.416-1.825.416-.757 0-1.45-.192-2.08-.576a4.275 4.275 0 0 1-1.504-1.632c-.362-.704-.543-1.499-.543-2.384Zm7.216.032c0-.608-.128-1.136-.384-1.584a2.584 2.584 0 0 0-.977-1.024 2.574 2.574 0 0 0-1.312-.352c-.469 0-.906.117-1.311.352-.406.224-.737.56-.993 1.008-.245.437-.368.96-.368 1.568 0 .608.123 1.141.368 1.6.256.459.587.81.992 1.056.416.235.854.352 1.313.352.469 0 .906-.117 1.311-.352.406-.235.731-.576.977-1.024.256-.459.384-.992.384-1.6Zm14.907-4.544c.694 0 1.312.144 1.856.432.555.288.987.715 1.296 1.28.32.565.48 1.248.48 2.048V18h-1.808v-4.928c0-.79-.197-1.392-.592-1.808-.394-.427-.933-.64-1.616-.64-.682 0-1.226.213-1.632.64-.394.416-.592 1.019-.592 1.808V18h-1.808v-4.928c0-.79-.197-1.392-.592-1.808-.394-.427-.933-.64-1.616-.64-.682 0-1.226.213-1.632.64-.394.416-.592 1.019-.592 1.808V18h-1.824V9.184h1.824v1.008a3.032 3.032 0 0 1 1.136-.848 3.6 3.6 0 0 1 1.472-.304c.704 0 1.334.15 1.888.448.555.299.982.73 1.28 1.296.267-.533.683-.955 1.248-1.264a3.646 3.646 0 0 1 1.824-.48Z" fill="#F59F3A"/><rect x="1.25" y="3.25" width="17.5" height="17.5" rx="6" fill="url(#a)"/><rect x="1.25" y="3.25" width="17.5" height="17.5" rx="6" fill="url(#b)"/><rect x="1.25" y="3.25" width="17.5" height="17.5" rx="6" fill="url(#c)"/><path d="M14.375 8.563a.937.937 0 1 1-1.875 0 .937.937 0 0 1 1.875 0Z" fill="#fff"/><path fill-rule="evenodd" clip-rule="evenodd" d="M10 15.125a3.125 3.125 0 1 0 0-6.25 3.125 3.125 0 0 0 0 6.25Zm0-1.25a1.875 1.875 0 1 0 0-3.75 1.875 1.875 0 0 0 0 3.75Z" fill="#fff"/><path fill-rule="evenodd" clip-rule="evenodd" d="M3.75 11.75c0-2.1 0-3.15.409-3.952a3.75 3.75 0 0 1 1.639-1.64C6.6 5.75 7.65 5.75 9.75 5.75h.5c2.1 0 3.15 0 3.953.409a3.75 3.75 0 0 1 1.638 1.639c.409.802.409 1.852.409 3.952v.5c0 2.1 0 3.15-.409 3.953a3.75 3.75 0 0 1-1.638 1.638c-.803.409-1.853.409-3.953.409h-.5c-2.1 0-3.15 0-3.952-.409a3.75 3.75 0 0 1-1.64-1.639C3.75 15.4 3.75 14.35 3.75 12.25v-.5Zm6-4.75h.5c1.07 0 1.799.001 2.361.047.548.045.829.126 1.024.225a2.5 2.5 0 0 1 1.092 1.093c.1.196.181.476.226 1.024.046.562.047 1.29.047 2.361v.5c0 1.07-.001 1.799-.047 2.361-.045.548-.126.829-.226 1.024a2.5 2.5 0 0 1-1.092 1.092c-.195.1-.476.181-1.024.226-.562.046-1.29.047-2.361.047h-.5c-1.07 0-1.799-.001-2.361-.047-.548-.045-.828-.126-1.024-.226a2.5 2.5 0 0 1-1.093-1.092c-.1-.195-.18-.476-.225-1.024C5 14.05 5 13.321 5 12.25v-.5c0-1.07.001-1.799.047-2.361.045-.548.126-.828.225-1.024a2.5 2.5 0 0 1 1.093-1.093c.196-.1.476-.18 1.024-.225C7.95 7 8.679 7 9.75 7Z" fill="#fff"/><defs><radialGradient id="a" cx="0" cy="0" r="1" gradientUnits="userSpaceOnUse" gradientTransform="rotate(-55.376 19.353 1.041) scale(15.9498)"><stop stop-color="#B13589"/><stop offset=".793" stop-color="#C62F94"/><stop offset="1" stop-color="#8A3AC8"/></radialGradient><radialGradient id="b" cx="0" cy="0" r="1" gradientUnits="userSpaceOnUse" gradientTransform="rotate(-65.136 20.17 5.306) scale(14.1214)"><stop stop-color="#E0E8B7"/><stop offset=".445" stop-color="#FB8A2E"/><stop offset=".715" stop-color="#E2425C"/><stop offset="1" stop-color="#E2425C" stop-opacity="0"/></radialGradient><radialGradient id="c" cx="0" cy="0" r="1" gradientUnits="userSpaceOnUse" gradientTransform="matrix(24.0625 -3.4375 .73525 5.14672 .313 3.875)"><stop offset=".157" stop-color="#406ADC"/><stop offset=".468" stop-color="#6A45BE"/><stop offset="1" stop-color="#6A45BE" stop-opacity="0"/></radialGradient></defs></svg>