<svg width="25" height="25" viewBox="0 0 25 25" fill="none" xmlns="http://www.w3.org/2000/svg">
<path d="M11.9853 9.97851C11.4763 9.97869 10.9787 10.1255 10.5556 10.4003C10.1324 10.6752 9.8027 11.0658 9.60804 11.5226C9.41338 11.9795 9.36254 12.4822 9.46196 12.9672C9.56139 13.4521 9.8066 13.8976 10.1666 14.2471C10.5266 14.5967 10.9852 14.8348 11.4845 14.9312C11.9837 15.0276 12.5012 14.978 12.9714 14.7887C13.4417 14.5994 13.8436 14.279 14.1264 13.8678C14.4092 13.4567 14.5601 12.9733 14.5601 12.4788C14.5596 11.8157 14.2881 11.1799 13.8053 10.7111C13.3225 10.2422 12.6679 9.97876 11.9853 9.97851ZM18.003 8.05663C17.872 7.73406 17.6741 7.44108 17.4217 7.19587C17.1693 6.95066 16.8677 6.75845 16.5356 6.63116C15.5223 6.24257 13.1096 6.32976 11.9853 6.32976C10.861 6.32976 8.4507 6.23929 7.43447 6.63116C7.10241 6.75845 6.80081 6.95066 6.54839 7.19587C6.29597 7.44108 6.09811 7.73406 5.96708 8.05663C5.56754 9.04101 5.65681 11.3871 5.65681 12.4784C5.65681 13.5696 5.56754 15.9129 5.96901 16.9005C6.10004 17.2231 6.2979 17.5161 6.55032 17.7613C6.80274 18.0065 7.10434 18.1987 7.4364 18.326C8.44973 18.7146 10.8624 18.6274 11.9872 18.6274C13.112 18.6274 15.5213 18.7179 16.5375 18.326C16.8696 18.1987 17.1712 18.0065 17.4236 17.7613C17.676 17.5161 17.8739 17.2231 18.0049 16.9005C18.4078 15.9162 18.3152 13.5701 18.3152 12.4788C18.3152 11.3876 18.4078 9.04476 18.0049 8.0571L18.003 8.05663ZM11.9853 16.3226C11.2027 16.3226 10.4377 16.0971 9.787 15.6748C9.1363 15.2524 8.62915 14.6521 8.32967 13.9498C8.03019 13.2474 7.95183 12.4746 8.1045 11.7289C8.25718 10.9833 8.63403 10.2984 9.1874 9.76088C9.74076 9.22332 10.4458 8.85724 11.2133 8.70893C11.9809 8.56062 12.7765 8.63673 13.4995 8.92766C14.2225 9.21858 14.8405 9.71125 15.2752 10.3433C15.71 10.9754 15.9421 11.7186 15.9421 12.4788C15.9427 12.9838 15.8408 13.4839 15.6422 13.9505C15.4436 14.4171 15.1521 14.8411 14.7846 15.1981C14.417 15.5552 13.9806 15.8383 13.5002 16.0312C13.0199 16.2242 12.5051 16.3232 11.9853 16.3226ZM16.1052 9.37101C15.9225 9.3711 15.7439 9.31856 15.5919 9.22003C15.44 9.1215 15.3215 8.98142 15.2516 8.81748C15.1816 8.65355 15.1632 8.47314 15.1988 8.29908C15.2344 8.12501 15.3223 7.9651 15.4515 7.83958C15.5806 7.71406 15.7452 7.62856 15.9243 7.59391C16.1035 7.55925 16.2892 7.57699 16.458 7.64488C16.6268 7.71278 16.7711 7.82777 16.8726 7.97532C16.9741 8.12287 17.0283 8.29635 17.0283 8.47382C17.0288 8.59167 17.0053 8.70846 16.9593 8.81749C16.9132 8.92651 16.8454 9.02563 16.7599 9.10916C16.6743 9.19269 16.5726 9.25898 16.4606 9.30424C16.3485 9.3495 16.2284 9.37282 16.1071 9.37288L16.1052 9.37101ZM20.4779 1.97882H3.49263C2.87834 1.97882 2.28921 2.21587 1.85485 2.63783C1.42048 3.05979 1.17645 3.63208 1.17645 4.22882L1.17645 20.7288C1.17645 21.3256 1.42048 21.8979 1.85485 22.3198C2.28921 22.7418 2.87834 22.9788 3.49263 22.9788H20.4779C21.0922 22.9788 21.6813 22.7418 22.1157 22.3198C22.5501 21.8979 22.7941 21.3256 22.7941 20.7288V4.22882C22.7941 3.63208 22.5501 3.05979 22.1157 2.63783C21.6813 2.21587 21.0922 1.97882 20.4779 1.97882ZM19.6518 15.5726C19.5896 16.774 19.3073 17.8385 18.4045 18.7132C17.5016 19.5879 16.4068 19.8677 15.1715 19.9249C13.8971 19.9948 10.0764 19.9948 8.80198 19.9249C7.56524 19.8644 6.47326 19.5898 5.56898 18.7132C4.66471 17.8366 4.3805 16.7716 4.32163 15.5726C4.24973 14.3341 4.24973 10.6221 4.32163 9.38507C4.38387 8.18366 4.66278 7.11913 5.56898 6.24445C6.47519 5.36976 7.57007 5.0932 8.80198 5.03601C10.0764 4.96616 13.8971 4.96616 15.1715 5.03601C16.4082 5.09648 17.5036 5.37116 18.4045 6.24773C19.3054 7.12429 19.593 8.18929 19.6518 9.3907C19.7237 10.6244 19.7237 14.3332 19.6518 15.5726Z" fill="#3571A3"/>
</svg>
