<svg width="18" height="18" fill="none" xmlns="http://www.w3.org/2000/svg"><path d="M14.813 1.125H2.437c-.931 0-1.687.756-1.687 1.688v12.374c0 .932.756 1.688 1.688 1.688h12.374c.932 0 1.688-.756 1.688-1.688V2.813c0-.932-.756-1.688-1.688-1.688ZM9.32 13.409c0 1.532-.9 2.232-2.211 2.232-1.185 0-1.87-.612-2.222-1.354l1.206-.727c.232.411.443.76.952.76.486 0 .795-.19.795-.933v-5.03h1.48v5.052Zm3.502 2.232c-1.375 0-2.264-.654-2.697-1.512l1.206-.696c.316.517.731.9 1.459.9.612 0 1.005-.306 1.005-.731 0-.506-.4-.686-1.079-.984l-.369-.159c-1.069-.453-1.775-1.026-1.775-2.232 0-1.111.847-1.955 2.165-1.955.943 0 1.617.327 2.103 1.185l-1.153.738c-.254-.453-.528-.633-.953-.633-.433 0-.707.275-.707.633 0 .443.274.623.91.9l.37.159c1.258.537 1.965 1.09 1.965 2.327 0 1.329-1.048 2.06-2.45 2.06Z" fill="#27272A"/></svg>