<svg width="16" height="15" fill="none" xmlns="http://www.w3.org/2000/svg"><path d="M14.325 1.01C12.519-.51 9.728-.282 8 1.477 6.272-.282 3.481-.512 1.675 1.01c-2.35 1.979-2.006 5.204-.331 6.913l5.481 5.584a1.639 1.639 0 0 0 2.35.003l5.481-5.584c1.672-1.71 2.022-4.934-.331-6.916Zm-.737 5.859-5.482 5.584c-.075.075-.137.075-.212 0L2.412 6.87c-1.14-1.163-1.371-3.363.229-4.71 1.215-1.021 3.09-.868 4.265.329L8 3.603l1.094-1.115c1.181-1.204 3.056-1.35 4.265-.332 1.597 1.347 1.36 3.56.229 4.713Z" fill="#697077"/></svg>