<svg width="24" height="24" fill="none" xmlns="http://www.w3.org/2000/svg"><path d="m18.673 10.473-7.946-7.946A1.8 1.8 0 0 0 9.454 2H1.8A1.8 1.8 0 0 0 0 3.8v7.654c0 .478.19.936.527 1.273l7.946 7.946a1.8 1.8 0 0 0 2.545 0l7.655-7.655a1.8 1.8 0 0 0 0-2.545ZM4.2 8a1.8 1.8 0 1 1 0-3.6 1.8 1.8 0 0 1 0 3.6Zm19.273 5.018-7.655 7.655a1.8 1.8 0 0 1-2.545 0l-.014-.014 6.527-6.527a3.353 3.353 0 0 0 .989-2.386c0-.902-.351-1.75-.988-2.387L12.427 2h1.827a1.8 1.8 0 0 1 1.273.527l7.946 7.946a1.8 1.8 0 0 1 0 2.545Z" fill="#303634"/></svg>