<svg width="18" height="19" viewBox="0 0 18 19" fill="none" xmlns="http://www.w3.org/2000/svg">
<path d="M16.2117 7.54883C15.941 6.4625 15.4277 5.64336 14.3344 5.64336H12.9246V7.30976C12.9246 8.60351 11.8277 9.69336 10.5762 9.69336H6.82149C5.79492 9.69336 4.94414 10.5723 4.94414 11.6023V15.1812C4.94414 16.2008 5.83008 16.7984 6.82149 17.0902C8.00977 17.4383 9.15235 17.5016 10.5762 17.0902C11.5219 16.816 12.4535 16.2641 12.4535 15.1812V13.7504H8.70235V13.2723H14.3344C15.4277 13.2723 15.832 12.5094 16.2117 11.3668C16.6055 10.1891 16.5879 9.05703 16.2117 7.54883ZM10.8117 14.7031C11.202 14.7031 11.5184 15.023 11.5184 15.4168C11.5184 15.8141 11.202 16.134 10.8117 16.134C10.425 16.134 10.1051 15.8105 10.1051 15.4168C10.1086 15.0195 10.425 14.7031 10.8117 14.7031ZM6.64922 9.22226H10.4039C11.4481 9.22226 12.2813 8.36093 12.2813 7.31328V3.73086C12.2813 2.71133 11.4234 1.94844 10.4039 1.77617C9.14532 1.56875 7.77774 1.5793 6.64922 1.77969C5.06016 2.06094 4.77188 2.64805 4.77188 3.73437V5.16523H8.53008V5.64336H3.36211C2.26875 5.64336 1.3125 6.30078 1.01367 7.54883C0.66914 8.97968 0.655078 9.87265 1.01367 11.3668C1.28086 12.4777 1.91719 13.2723 3.01055 13.2723H4.30078V11.5566C4.30078 10.3156 5.37305 9.22226 6.64922 9.22226ZM6.41368 4.20898C6.02344 4.20898 5.70703 3.88906 5.70703 3.49531C5.71055 3.09805 6.02344 2.77812 6.41368 2.77812C6.80039 2.77812 7.12032 3.10156 7.12032 3.49531C7.12032 3.88906 6.80391 4.20898 6.41368 4.20898Z" fill="black" fill-opacity="0.53"/>
</svg>
