<svg width="20" height="20" fill="none" xmlns="http://www.w3.org/2000/svg"><path d="m16.005 7.632-.256.447a.386.386 0 0 1-.472.17 3.454 3.454 0 0 1-1.004-.582.388.388 0 0 1-.087-.49l.256-.448a2.698 2.698 0 0 1-.497-.856h-.515a.386.386 0 0 1-.382-.322 3.522 3.522 0 0 1 0-1.16.389.389 0 0 1 .382-.325h.515c.113-.315.281-.606.497-.856l-.256-.447a.385.385 0 0 1 .087-.49 3.495 3.495 0 0 1 1.004-.582.386.386 0 0 1 .472.169l.256.447c.328-.06.662-.06.99 0l.257-.447a.386.386 0 0 1 .472-.169c.368.138.706.335 1.003.582a.388.388 0 0 1 .087.49l-.256.447c.216.25.384.54.497.856h.516c.187 0 .35.135.38.322a3.52 3.52 0 0 1 0 1.16.388.388 0 0 1-.38.325h-.516a2.698 2.698 0 0 1-.497.856l.256.447a.384.384 0 0 1-.087.49 3.494 3.494 0 0 1-1.003.582.386.386 0 0 1-.472-.169l-.257-.447c-.325.06-.662.06-.99 0Zm-.328-1.837c1.203.925 2.575-.447 1.65-1.65-1.204-.929-2.576.447-1.65 1.65Zm-3.604 4.81 1.053.524a.752.752 0 0 1 .329.91c-.279.756-.825 1.45-1.332 2.056a.747.747 0 0 1-.947.166l-.91-.525c-.5.428-1.08.769-1.715.99v1.05c0 .363-.26.676-.616.738a7.03 7.03 0 0 1-2.372 0 .75.75 0 0 1-.625-.737v-1.05a5.426 5.426 0 0 1-1.716-.991l-.909.522a.748.748 0 0 1-.947-.166c-.506-.606-1.04-1.3-1.319-2.053a.754.754 0 0 1 .328-.91l1.041-.524a5.414 5.414 0 0 1 0-1.982l-1.04-.528a.745.745 0 0 1-.329-.906c.278-.757.813-1.45 1.319-2.057a.747.747 0 0 1 .947-.165l.91.525A5.369 5.369 0 0 1 4.937 4.5V3.448c0-.36.256-.672.613-.735a7.128 7.128 0 0 1 2.375-.003.75.75 0 0 1 .625.738v1.05a5.428 5.428 0 0 1 1.716.99l.91-.525a.748.748 0 0 1 .946.166c.507.606 1.038 1.3 1.316 2.056a.747.747 0 0 1-.313.91l-1.053.525a5.43 5.43 0 0 1 0 1.985Zm-3.675.659C10.248 8.857 7.5 6.11 5.094 7.96c-1.85 2.406.897 5.153 3.304 3.303Zm7.607 5.71-.256.447a.386.386 0 0 1-.472.169 3.458 3.458 0 0 1-1.004-.582.388.388 0 0 1-.087-.49l.256-.447a2.699 2.699 0 0 1-.497-.857h-.515a.386.386 0 0 1-.382-.322 3.522 3.522 0 0 1 0-1.16.389.389 0 0 1 .382-.324h.515a2.7 2.7 0 0 1 .497-.856l-.256-.447a.384.384 0 0 1 .087-.491 3.494 3.494 0 0 1 1.004-.581.386.386 0 0 1 .472.168l.256.447c.328-.059.662-.059.99 0l.257-.447a.386.386 0 0 1 .472-.168c.368.137.706.334 1.003.581a.388.388 0 0 1 .087.49l-.256.448c.216.25.384.54.497.856h.516c.187 0 .35.134.38.322.063.375.067.769 0 1.16a.389.389 0 0 1-.38.324h-.516a2.699 2.699 0 0 1-.497.857l.256.446a.384.384 0 0 1-.087.491 3.498 3.498 0 0 1-1.003.582.386.386 0 0 1-.472-.17l-.257-.446c-.325.06-.662.06-.99 0Zm-.328-1.841c1.203.925 2.575-.447 1.65-1.65-1.204-.925-2.576.447-1.65 1.65Z" fill="#000" fill-opacity=".53"/></svg>