<svg width="16" height="16" fill="none" xmlns="http://www.w3.org/2000/svg"><g clip-path="url(#a)"><path d="M13.75.203.75 7.7c-1.075.622-.972 2.212.178 2.684L4.5 11.863V14.5c0 1.45 1.85 2.047 2.706.894l1.369-1.847 3.497 1.444a1.516 1.516 0 0 0 1.31-.082c.4-.225.674-.625.746-1.078l1.856-12.1C16.175.478 14.831-.419 13.75.203ZM6 14.5v-2.019l1.144.472L6 14.5Zm6.644-.897L7.838 11.62l4.38-6.322c.335-.485-.296-1.047-.74-.663l-6.61 5.76L1.5 9l13-7.5-1.856 12.103Z" fill="#697077"/></g><defs><clipPath id="a"><path fill="#fff" d="M0 0h16v16H0z"/></clipPath></defs></svg>