<svg width="25" height="25" viewBox="0 0 25 25" fill="none" xmlns="http://www.w3.org/2000/svg">
<g clip-path="url(#clip0_1225_3183)">
<path d="M12.1139 0.853821C5.50319 0.853821 0.147034 6.05695 0.147034 12.4788C0.147034 18.9007 5.50319 24.1038 12.1139 24.1038C18.7247 24.1038 24.0809 18.9007 24.0809 12.4788C24.0809 6.05695 18.7247 0.853821 12.1139 0.853821ZM17.9912 8.81788L16.0273 17.8085C15.8826 18.446 15.4917 18.6007 14.9464 18.3007L11.9547 16.1585L10.5119 17.5085C10.3527 17.6632 10.2176 17.7944 9.90875 17.7944L10.1211 14.8366L15.6654 9.97101C15.9067 9.76476 15.6123 9.64757 15.2939 9.85382L8.44184 14.0444L5.48872 13.1491C4.84694 12.9523 4.83247 12.5257 5.62383 12.2257L17.1613 7.90382C17.6969 7.71632 18.165 8.03038 17.9912 8.81788Z" fill="black" fill-opacity="0.53"/>
</g>
<defs>
<clipPath id="clip0_1225_3183">
<rect width="24.7059" height="24" fill="white" transform="translate(0.147034 0.478821)"/>
</clipPath>
</defs>
</svg>
