<svg width="18" height="18" fill="none" xmlns="http://www.w3.org/2000/svg"><g clip-path="url(#a)"><path d="M17.891 8.544C16.197 5.237 12.841 3 9 3 5.158 3 1.802 5.239.109 8.544a1.011 1.011 0 0 0 0 .912C1.803 12.763 5.159 15 9 15c3.842 0 7.198-2.239 8.891-5.544a1.01 1.01 0 0 0 0-.912ZM9 13.5a4.5 4.5 0 1 1 0-9 4.5 4.5 0 0 1 0 9ZM9 6a2.979 2.979 0 0 0-.79.118A1.495 1.495 0 0 1 6.117 8.21 2.993 2.993 0 1 0 9 6Z" fill="#000" fill-opacity=".53"/></g><path stroke="#585252" stroke-opacity=".3" stroke-width=".5" d="M.25.25h17.5v17.5H.25z"/><defs><clipPath id="a"><path fill="#fff" d="M0 0h18v18H0z"/></clipPath></defs></svg>